<svg data-v-0dd9719b="" version="1.0" xmlns="http://www.w3.org/2000/svg" xmlns:xlink="http://www.w3.org/1999/xlink" width="100%" height="100%" viewBox="0 0 180 80" preserveAspectRatio="xMidYMid meet" color-interpolation-filters="sRGB" style="margin: auto;"> <!----> <g data-v-0dd9719b="" class="iconmbgsvg"><g fill="#ffffff" hollow-target="text"><g mask="url(#b1405ef7-27f5-48b0-b217-3e85ec6a7594)"><g><rect fill="#ffffff" fill-opacity="0" stroke-width="2" x="0" y="0" width="60" height="60" class="image-rect"/>
 <svg x="0" y="0" width="59.999999999999964" height="59.999999999999964" filtersec="colorsf24773151" class="image-svg-svg primary" style="overflow: visible;"><svg fill="#ffffff" xmlns:x="http://ns.adobe.com/Extensibility/1.0/" xmlns:i="http://ns.adobe.com/AdobeIllustrator/10.0/" xmlns:graph="http://ns.adobe.com/Graphs/1.0/" xmlns="http://www.w3.org/2000/svg" xmlns:xlink="http://www.w3.org/1999/xlink" version="1.1" x="0px" y="0px" viewBox="6 6 52 52" enable-background="new 0 0 64 64" xml:space="preserve"><metadata><sfw><slices/><slicesourcebounds y="-8160" x="-8165" width="16389" height="16384" bottomleftorigin="true"/><optimizationsettings><targetsettings targetsettingsid="0" fileformat="PNG24Format"><png24format transparency="true" filtered="false" interlaced="false" nomattecolor="false" mattecolor="#FFFFFF"/></targetsettings></optimizationsettings></sfw></metadata><g><path d="M56,6H8C6.896,6,6,6.896,6,8v48c0,1.104,0.896,2,2,2h48c1.104,0,2-0.896,2-2V8C58,6.896,57.104,6,56,6z"/></g></svg></svg> <defs><filter id="colors9753750286"><feColorMatrix type="matrix" values="0 0 0 0 0.19921875  0 0 0 0 0.19921875  0 0 0 0 0.19921875  0 0 0 1 0" class="icon-fecolormatrix"/></filter> <filter id="colorsf24773151"><feColorMatrix type="matrix" values="0 0 0 0 0.99609375  0 0 0 0 0.99609375  0 0 0 0 0.99609375  0 0 0 1 0" class="icon-fecolormatrix"/></filter> <filter id="colorsb1314512308"><feColorMatrix type="matrix" values="0 0 0 0 0  0 0 0 0 0  0 0 0 0 0  0 0 0 1 0" class="icon-fecolormatrix"/></filter></defs></g></g> <g transform="translate(20.321502685546875,22.67717933654785)"><g data-gra="path-name" fill-rule="" class="tp-name" transform="translate(0,0)"><g transform="scale(0.7399999999999999)"><g><path d="M49.91-28.07L49.91-50.4 55.65-50.4 55.65 0 49.91 0 49.91-22.33 9.66-22.33 9.66 0 3.99 0 3.99-50.4 9.66-50.4 9.66-28.07 49.91-28.07ZM63.63-50.4L109.62-50.4 109.62-44.73 69.3-44.73 69.3-28.07 101.71-28.07 101.71-22.33 69.3-22.33 69.3-5.67 109.62-5.67 109.62 0 63.63 0 63.63-50.4ZM167.58 0L117.18 0 117.18-50.47 122.85-50.47 122.85-5.67 167.58-5.67 167.58 0ZM171.64 0L171.64-50.33 213.64-50.33Q217.14-50.33 219.59-47.88 222.04-45.43 222.04-41.93L222.04-41.93 222.04-27.16Q222.04-23.66 219.59-21.21 217.14-18.76 213.64-18.76L213.64-18.76 180.04-18.76Q179.41-18.76 177.31-19.04L177.31-19.04 177.31 0 171.64 0ZM216.37-27.16L216.37-27.16 216.37-41.93Q216.37-43.05 215.57-43.86 214.76-44.66 213.64-44.66L213.64-44.66 180.04-44.66Q178.92-44.66 178.12-43.86 177.31-43.05 177.31-41.93L177.31-41.93 177.31-27.16Q177.31-26.04 178.12-25.27 178.92-24.5 180.04-24.5L180.04-24.5 213.64-24.5Q214.76-24.5 215.57-25.27 216.37-26.04 216.37-27.16Z" transform="translate(-3.990000009536743, 50.470001220703125)"/></g> <!----> <!----> <!----> <!----> <!----> <!----> <!----></g></g> <g data-gra="path-slogan" fill-rule="" class="tp-slogan" fill="#ffffff" transform="translate(27.03009796142578,46.347801208496094)"><!----> <!----> <g transform="scale(1, 1)"><g transform="scale(1.1400000000000001)"><path d="M3.98 0.14L3.98 0.14Q3.24 0.14 2.62-0.14Q2.00-0.43 1.56-0.97Q1.12-1.50 0.87-2.26Q0.62-3.02 0.62-3.97L0.62-3.97Q0.62-4.92 0.87-5.67Q1.12-6.42 1.56-6.94Q2.00-7.46 2.62-7.74Q3.24-8.02 3.98-8.02L3.98-8.02Q4.73-8.02 5.35-7.73Q5.96-7.45 6.41-6.93Q6.86-6.41 7.11-5.66Q7.36-4.91 7.36-3.97L7.36-3.97Q7.36-3.02 7.11-2.26Q6.86-1.50 6.41-0.97Q5.96-0.43 5.35-0.14Q4.73 0.14 3.98 0.14ZM3.98-0.73L3.98-0.73Q4.51-0.73 4.94-0.96Q5.36-1.19 5.67-1.61Q5.98-2.04 6.14-2.63Q6.31-3.23 6.31-3.97L6.31-3.97Q6.31-4.70 6.14-5.29Q5.98-5.88 5.67-6.29Q5.36-6.70 4.94-6.92Q4.51-7.14 3.98-7.14L3.98-7.14Q3.46-7.14 3.03-6.92Q2.60-6.70 2.30-6.29Q1.99-5.88 1.82-5.29Q1.66-4.70 1.66-3.97L1.66-3.97Q1.66-3.23 1.82-2.63Q1.99-2.04 2.30-1.61Q2.60-1.19 3.03-0.96Q3.46-0.73 3.98-0.73ZM11.05 0L11.05-7.87L13.46-7.87Q14.11-7.87 14.65-7.75Q15.19-7.63 15.57-7.36Q15.94-7.09 16.15-6.65Q16.36-6.20 16.36-5.56L16.36-5.56Q16.36-4.93 16.15-4.48Q15.94-4.02 15.56-3.72Q15.18-3.42 14.64-3.27Q14.11-3.12 13.46-3.12L13.46-3.12L12.04-3.12L12.04 0L11.05 0ZM12.04-3.94L13.34-3.94Q14.37-3.94 14.87-4.33Q15.37-4.72 15.37-5.56L15.37-5.56Q15.37-6.41 14.86-6.74Q14.36-7.07 13.34-7.07L13.34-7.07L12.04-7.07L12.04-3.94ZM21.30 0L21.30-7.03L18.93-7.03L18.93-7.87L24.69-7.87L24.69-7.03L22.31-7.03L22.31 0L21.30 0ZM28.10 0L28.10-7.87L29.10-7.87L29.10 0L28.10 0ZM33.26 0L33.26-7.87L34.44-7.87L35.96-3.65L36.54-2.04L36.58-2.04L37.14-3.65L38.65-7.87L39.82-7.87L39.82 0L38.88 0L38.88-4.33Q38.88-4.86 38.92-5.50Q38.96-6.13 39.01-6.66L39.01-6.66L38.96-6.66L38.32-4.91L36.81-0.79L36.25-0.79L34.72-4.91L34.10-6.66L34.05-6.66Q34.09-6.13 34.14-5.50Q34.18-4.86 34.18-4.33L34.18-4.33L34.18 0L33.26 0ZM43.98 0L43.98-7.87L44.98-7.87L44.98 0L43.98 0ZM48.60 0L48.60-0.60L52.74-7.03L48.97-7.03L48.97-7.87L53.99-7.87L53.99-7.28L49.84-0.85L54.02-0.85L54.02 0L48.60 0ZM58.52-3.20L60.88-3.20L60.51-4.40Q60.30-5.06 60.10-5.72Q59.91-6.37 59.72-7.06L59.72-7.06L59.67-7.06Q59.49-6.37 59.30-5.72Q59.11-5.06 58.89-4.40L58.89-4.40L58.52-3.20ZM61.88 0L61.14-2.40L58.27-2.40L57.51 0L56.49 0L59.16-7.87L60.28-7.87L62.95 0L61.88 0ZM67.22 0L67.22-7.03L64.84-7.03L64.84-7.87L70.60-7.87L70.60-7.03L68.22-7.03L68.22 0L67.22 0ZM74.02 0L74.02-7.87L75.01-7.87L75.01 0L74.02 0ZM82.08 0.14L82.08 0.14Q81.33 0.14 80.71-0.14Q80.10-0.43 79.65-0.97Q79.21-1.50 78.96-2.26Q78.72-3.02 78.72-3.97L78.72-3.97Q78.72-4.92 78.96-5.67Q79.21-6.42 79.65-6.94Q80.10-7.46 80.71-7.74Q81.33-8.02 82.08-8.02L82.08-8.02Q82.82-8.02 83.44-7.73Q84.06-7.45 84.51-6.93Q84.96-6.41 85.20-5.66Q85.45-4.91 85.45-3.97L85.45-3.97Q85.45-3.02 85.20-2.26Q84.96-1.50 84.51-0.97Q84.06-0.43 83.44-0.14Q82.82 0.14 82.08 0.14ZM82.08-0.73L82.08-0.73Q82.60-0.73 83.03-0.96Q83.46-1.19 83.76-1.61Q84.07-2.04 84.24-2.63Q84.40-3.23 84.40-3.97L84.40-3.97Q84.40-4.70 84.24-5.29Q84.07-5.88 83.76-6.29Q83.46-6.70 83.03-6.92Q82.60-7.14 82.08-7.14L82.08-7.14Q81.55-7.14 81.12-6.92Q80.70-6.70 80.39-6.29Q80.08-5.88 79.92-5.29Q79.75-4.70 79.75-3.97L79.75-3.97Q79.75-3.23 79.92-2.63Q80.08-2.04 80.39-1.61Q80.70-1.19 81.12-0.96Q81.55-0.73 82.08-0.73ZM89.14 0L89.14-7.87L90.17-7.87L93.02-2.93L93.87-1.30L93.92-1.30Q93.88-1.90 93.84-2.54Q93.80-3.18 93.80-3.80L93.80-3.80L93.80-7.87L94.74-7.87L94.74 0L93.71 0L90.86-4.96L90.00-6.58L89.96-6.58Q90.00-5.98 90.05-5.36Q90.09-4.74 90.09-4.12L90.09-4.12L90.09 0L89.14 0Z" transform="translate(-0.624, 8.016)"/></g></g></g></g></g></g><mask id="b1405ef7-27f5-48b0-b217-3e85ec6a7594"><g fill="white"><g><rect fill-opacity="1" stroke-width="2" x="0" y="0" width="59.999999999999964" height="59.999999999999964" class="image-rect"/> <svg x="0" y="0" width="59.999999999999964" height="59.999999999999964" class="image-svg-svg primary" style="overflow: visible;" filter="url(#colorsf24773151)"><svg xmlns:x="http://ns.adobe.com/Extensibility/1.0/" xmlns:i="http://ns.adobe.com/AdobeIllustrator/10.0/" xmlns:graph="http://ns.adobe.com/Graphs/1.0/" xmlns="http://www.w3.org/2000/svg" xmlns:xlink="http://www.w3.org/1999/xlink" version="1.1" x="0px" y="0px" viewBox="6 6 52 52" enable-background="new 0 0 64 64" xml:space="preserve"><metadata><sfw><slices/><slicesourcebounds y="-8160" x="-8165" width="16389" height="16384" bottomleftorigin="true"/><optimizationsettings><targetsettings targetsettingsid="0" fileformat="PNG24Format"><png24format transparency="true" filtered="false" interlaced="false" nomattecolor="false" mattecolor="#FFFFFF"/></targetsettings></optimizationsettings></sfw></metadata><g><path d="M56,6H8C6.896,6,6,6.896,6,8v48c0,1.104,0.896,2,2,2h48c1.104,0,2-0.896,2-2V8C58,6.896,57.104,6,56,6z"/></g></svg></svg> <defs>  </defs></g></g> <g transform="translate(20.321502685546875,22.67717933654785)" fill="#ffffff" stroke="black" stroke-width="6" stroke-linejoin="round"><g data-gra="path-name" fill-rule="" class="tp-name" transform="translate(0,0)"><g transform="scale(0.7399999999999999)"><g><path d="M49.91-28.07L49.91-50.4 55.65-50.4 55.65 0 49.91 0 49.91-22.33 9.66-22.33 9.66 0 3.99 0 3.99-50.4 9.66-50.4 9.66-28.07 49.91-28.07ZM63.63-50.4L109.62-50.4 109.62-44.73 69.3-44.73 69.3-28.07 101.71-28.07 101.71-22.33 69.3-22.33 69.3-5.67 109.62-5.67 109.62 0 63.63 0 63.63-50.4ZM167.58 0L117.18 0 117.18-50.47 122.85-50.47 122.85-5.67 167.58-5.67 167.58 0ZM171.64 0L171.64-50.33 213.64-50.33Q217.14-50.33 219.59-47.88 222.04-45.43 222.04-41.93L222.04-41.93 222.04-27.16Q222.04-23.66 219.59-21.21 217.14-18.76 213.64-18.76L213.64-18.76 180.04-18.76Q179.41-18.76 177.31-19.04L177.31-19.04 177.31 0 171.64 0ZM216.37-27.16L216.37-27.16 216.37-41.93Q216.37-43.05 215.57-43.86 214.76-44.66 213.64-44.66L213.64-44.66 180.04-44.66Q178.92-44.66 178.12-43.86 177.31-43.05 177.31-41.93L177.31-41.93 177.31-27.16Q177.31-26.04 178.12-25.27 178.92-24.5 180.04-24.5L180.04-24.5 213.64-24.5Q214.76-24.5 215.57-25.27 216.37-26.04 216.37-27.16Z" transform="translate(-3.990000009536743, 50.470001220703125)"/></g>       </g></g> <g data-gra="path-slogan" fill-rule="" class="tp-slogan" transform="translate(27.03009796142578,46.347801208496094)" fill="white">  <g transform="scale(1, 1)"><g transform="scale(1.1400000000000001)"><path d="M3.98 0.14L3.98 0.14Q3.24 0.14 2.62-0.14Q2.00-0.43 1.56-0.97Q1.12-1.50 0.87-2.26Q0.62-3.02 0.62-3.97L0.62-3.97Q0.62-4.92 0.87-5.67Q1.12-6.42 1.56-6.94Q2.00-7.46 2.62-7.74Q3.24-8.02 3.98-8.02L3.98-8.02Q4.73-8.02 5.35-7.73Q5.96-7.45 6.41-6.93Q6.86-6.41 7.11-5.66Q7.36-4.91 7.36-3.97L7.36-3.97Q7.36-3.02 7.11-2.26Q6.86-1.50 6.41-0.97Q5.96-0.43 5.35-0.14Q4.73 0.14 3.98 0.14ZM3.98-0.73L3.98-0.73Q4.51-0.73 4.94-0.96Q5.36-1.19 5.67-1.61Q5.98-2.04 6.14-2.63Q6.31-3.23 6.31-3.97L6.31-3.97Q6.31-4.70 6.14-5.29Q5.98-5.88 5.67-6.29Q5.36-6.70 4.94-6.92Q4.51-7.14 3.98-7.14L3.98-7.14Q3.46-7.14 3.03-6.92Q2.60-6.70 2.30-6.29Q1.99-5.88 1.82-5.29Q1.66-4.70 1.66-3.97L1.66-3.97Q1.66-3.23 1.82-2.63Q1.99-2.04 2.30-1.61Q2.60-1.19 3.03-0.96Q3.46-0.73 3.98-0.73ZM11.05 0L11.05-7.87L13.46-7.87Q14.11-7.87 14.65-7.75Q15.19-7.63 15.57-7.36Q15.94-7.09 16.15-6.65Q16.36-6.20 16.36-5.56L16.36-5.56Q16.36-4.93 16.15-4.48Q15.94-4.02 15.56-3.72Q15.18-3.42 14.64-3.27Q14.11-3.12 13.46-3.12L13.46-3.12L12.04-3.12L12.04 0L11.05 0ZM12.04-3.94L13.34-3.94Q14.37-3.94 14.87-4.33Q15.37-4.72 15.37-5.56L15.37-5.56Q15.37-6.41 14.86-6.74Q14.36-7.07 13.34-7.07L13.34-7.07L12.04-7.07L12.04-3.94ZM21.30 0L21.30-7.03L18.93-7.03L18.93-7.87L24.69-7.87L24.69-7.03L22.31-7.03L22.31 0L21.30 0ZM28.10 0L28.10-7.87L29.10-7.87L29.10 0L28.10 0ZM33.26 0L33.26-7.87L34.44-7.87L35.96-3.65L36.54-2.04L36.58-2.04L37.14-3.65L38.65-7.87L39.82-7.87L39.82 0L38.88 0L38.88-4.33Q38.88-4.86 38.92-5.50Q38.96-6.13 39.01-6.66L39.01-6.66L38.96-6.66L38.32-4.91L36.81-0.79L36.25-0.79L34.72-4.91L34.10-6.66L34.05-6.66Q34.09-6.13 34.14-5.50Q34.18-4.86 34.18-4.33L34.18-4.33L34.18 0L33.26 0ZM43.98 0L43.98-7.87L44.98-7.87L44.98 0L43.98 0ZM48.60 0L48.60-0.60L52.74-7.03L48.97-7.03L48.97-7.87L53.99-7.87L53.99-7.28L49.84-0.85L54.02-0.85L54.02 0L48.60 0ZM58.52-3.20L60.88-3.20L60.51-4.40Q60.30-5.06 60.10-5.72Q59.91-6.37 59.72-7.06L59.72-7.06L59.67-7.06Q59.49-6.37 59.30-5.72Q59.11-5.06 58.89-4.40L58.89-4.40L58.52-3.20ZM61.88 0L61.14-2.40L58.27-2.40L57.51 0L56.49 0L59.16-7.87L60.28-7.87L62.95 0L61.88 0ZM67.22 0L67.22-7.03L64.84-7.03L64.84-7.87L70.60-7.87L70.60-7.03L68.22-7.03L68.22 0L67.22 0ZM74.02 0L74.02-7.87L75.01-7.87L75.01 0L74.02 0ZM82.08 0.14L82.08 0.14Q81.33 0.14 80.71-0.14Q80.10-0.43 79.65-0.97Q79.21-1.50 78.96-2.26Q78.72-3.02 78.72-3.97L78.72-3.97Q78.72-4.92 78.96-5.67Q79.21-6.42 79.65-6.94Q80.10-7.46 80.71-7.74Q81.33-8.02 82.08-8.02L82.08-8.02Q82.82-8.02 83.44-7.73Q84.06-7.45 84.51-6.93Q84.96-6.41 85.20-5.66Q85.45-4.91 85.45-3.97L85.45-3.97Q85.45-3.02 85.20-2.26Q84.96-1.50 84.51-0.97Q84.06-0.43 83.44-0.14Q82.82 0.14 82.08 0.14ZM82.08-0.73L82.08-0.73Q82.60-0.73 83.03-0.96Q83.46-1.19 83.76-1.61Q84.07-2.04 84.24-2.63Q84.40-3.23 84.40-3.97L84.40-3.97Q84.40-4.70 84.24-5.29Q84.07-5.88 83.76-6.29Q83.46-6.70 83.03-6.92Q82.60-7.14 82.08-7.14L82.08-7.14Q81.55-7.14 81.12-6.92Q80.70-6.70 80.39-6.29Q80.08-5.88 79.92-5.29Q79.75-4.70 79.75-3.97L79.75-3.97Q79.75-3.23 79.92-2.63Q80.08-2.04 80.39-1.61Q80.70-1.19 81.12-0.96Q81.55-0.73 82.08-0.73ZM89.14 0L89.14-7.87L90.17-7.87L93.02-2.93L93.87-1.30L93.92-1.30Q93.88-1.90 93.84-2.54Q93.80-3.18 93.80-3.80L93.80-3.80L93.80-7.87L94.74-7.87L94.74 0L93.71 0L90.86-4.96L90.00-6.58L89.96-6.58Q90.00-5.98 90.05-5.36Q90.09-4.74 90.09-4.12L90.09-4.12L90.09 0L89.14 0Z" transform="translate(-0.624, 8.016)"/></g></g></g></g></mask><defs v-gra="od"/></svg>